<?xml version="1.0" standalone="no"?>
<!DOCTYPE svg PUBLIC "-//W3C//DTD SVG 20010904//EN"
 "http://www.w3.org/TR/2001/REC-SVG-20010904/DTD/svg10.dtd">
<svg version="1.0" xmlns="http://www.w3.org/2000/svg"
 width="260.000000pt" height="260.000000pt" viewBox="0 0 260.000000 260.000000"
 preserveAspectRatio="xMidYMid meet">
<metadata>
Created by potrace 1.11, written by Peter Selinger 2001-2013
</metadata>
<g transform="translate(0.000000,260.000000) scale(0.100000,-0.100000)"
fill="#000000" stroke="none">
<path d="M0 1300 l0 -1300 1300 0 1300 0 0 1300 0 1300 -1300 0 -1300 0 0
-1300z m1333 798 c3 -7 39 -101 80 -208 251 -648 307 -797 307 -810 0 -6 -11
-10 -24 -10 -26 0 -26 0 -116 245 -18 50 -38 96 -43 102 -7 9 -66 12 -236 10
l-226 -2 -50 -126 c-27 -70 -58 -150 -68 -178 -15 -43 -22 -51 -42 -51 -14 0
-25 5 -25 11 0 6 70 194 156 418 255 665 232 611 259 611 12 0 25 -6 28 -12z
m482 -1348 l0 -25 -487 -3 -488 -2 0 30 0 30 488 -2 487 -3 0 -25z m3 -242 l3
-28 -490 0 -491 0 0 30 0 30 488 -2 487 -3 3 -27z"/>
<path d="M1270 1943 c-18 -49 -53 -140 -78 -203 -24 -63 -57 -150 -73 -192
l-28 -78 214 0 214 0 -25 68 c-52 139 -186 487 -189 490 -1 1 -17 -37 -35 -85z"/>
</g>
</svg>
