<svg xmlns="http://www.w3.org/2000/svg" viewBox="-80 -40 800 560"><path fill="#8060E5" d="M-80-40h800v560H-80z"/><path d="M567.4 433.7H77V431h490.5v2.7zm0-52H77V379h490.5v2.7zM92 171.5c2.8-6.9 6.9-12.8 12.3-17.8s11.9-8.9 19.7-11.7c7.8-2.8 16.9-4.3 27.3-4.3 7.4 0 14.5.7 21.2 2.2 6.7 1.5 12.4 4.3 17.5 8 5 3.9 9.1 8.7 12.1 14.9 3 6.1 4.6 13.7 4.8 22.9v107c0 3.3.7 5.8 2 7.2 1.3 1.5 3 2.6 5.2 3.2 2.2.6 4.5.7 7.1.7 2.4-.2 4.8-.2 7.1-.6v6.5h-9.8c-4.8 0-8.9-1.1-12.6-3.3-3.5-2.2-5.4-6.5-5.4-13v-21.9h-.7c-1.7 5.4-4.5 10.8-8.4 15.6-3.9 5-8.5 9.5-14.3 13.4-5.8 3.9-12.4 7.1-19.7 9.3-7.4 2.2-15.4 3.3-24.2 3.3-17.1 0-30.7-3.7-40.9-11.3-10.3-7.5-15.5-18.8-15.5-33.9 0-10.4 1.7-18.8 5-25.3 3.3-6.3 7.8-11.3 13.2-14.9s11.7-6.1 18.6-7.4c7.1-1.5 13.9-2.4 21-2.8 11.5-.7 21.6-1.3 29.7-1.9 8.4-.6 15-1.7 20.4-3.3 5.4-1.7 9.3-4.1 11.7-7.4s3.7-8.2 3.7-14.5c0-5-.4-10.2-1.3-15.6s-3-10.4-6.3-15-8.4-8.4-14.9-11.3c-6.5-3-15.2-4.3-26.4-4.3-17.6 0-31.4 4.3-41.2 13-9.8 8.5-15.2 20.8-16.3 36.4h-6.5c.4-7.8 2.1-15.2 4.8-22.1zm107.6 39.4c-2.2 3-5.6 5.4-10.2 7.1-4.6 1.7-9.8 3-15.6 3.7-5.9.9-12.3 1.5-19.1 1.7-6.9.2-13.6.6-20.1.9-6.5.4-13 1.3-19.1 2.4s-11.7 3.3-16.5 6.5c-4.8 3.2-8.5 7.4-11.5 13-2.8 5.6-4.3 12.8-4.3 21.7 0 4.8.7 9.5 2.4 14.3 1.7 4.6 4.5 8.9 8.4 12.4 3.9 3.5 8.9 6.5 15.2 8.9 6.1 2.2 13.9 3.3 23 3.3 11 0 20.6-1.9 29.2-5.6 8.5-3.7 15.6-8.5 21.4-14.5 5.8-5.9 10.2-13 13-20.8 3-7.8 4.5-16 4.5-24.2v-31l-.7.2zm51.8-134.7v233.5h-6.5V76.2h6.5zm36.8 182.4c2.4 9.7 6.3 18.2 11.5 25.3 5.2 7.2 12.1 12.8 20.2 17.1 8.4 4.1 18.4 6.1 30.5 6.1 17.6 0 32.3-4.6 44-13.9s18.9-23.2 21.7-41.6h6.5c-2.4 19.7-10.2 34.7-23.2 45.7-13 10.8-29.2 16.2-48.3 16.2-13 .2-24.3-1.9-33.4-6.1-9.3-4.3-16.9-10.6-22.7-18.4-5.9-8-10.2-17.3-13-28.1-2.8-10.8-4.3-22.5-4.3-34.7 0-13.9 2-26.4 6.1-37.3 4.1-11 9.7-20.1 16.3-27.7 6.7-7.4 14.7-13.2 23.6-17.1 8.9-3.9 18-5.9 27.5-5.9 13 0 24.3 2.6 33.8 7.4 9.5 5 17.3 11.7 23.2 19.9 5.9 8.4 10.4 17.8 13 28.4 2.8 10.8 3.9 21.7 3.3 33.4H284.1c.2 11.1 1.5 21.5 4.1 31.3zm125.6-67.4c-2.8-9.3-7.1-17.5-12.6-24.3-5.6-7.1-12.4-12.4-20.8-16.5s-17.8-6.1-28.8-6.1c-9.1 0-17.6 1.7-25.6 5.2s-14.9 8.5-21 15.2c-5.9 6.7-10.8 14.7-14.5 24-3.7 9.3-5.9 19.9-6.5 31.8h134.1c0-10.4-1.5-20-4.3-29.3zm151-49.6l-61.5 81 67.4 86.9h-8.2l-63.4-82.1-63.2 82.1h-7.8l67.1-86.9-61.1-81h8.5l56.5 76.2 58-76.2h7.7z" fill="#FFF"/></svg>