<svg xmlns="http://www.w3.org/2000/svg" viewBox="0 0 1200 630"><g fill="none"><path fill="#6F42C1" d="M0 0h1200v630H0z"/><path d="M474.329 339.596C471.012 348.73 456.303 367 426.597 367 397.757 367 378 350.036 378 322.486c0-24.649 17.016-41.468 50.327-41.468h46.579v-22.04c0-25.809-16.44-37.553-40.666-37.553-24.66 0-36.34 11.454-39.656 30.159h-9.95C387.228 228.529 403.235 212 434.816 212c30.14 0 50.184 15.804 50.184 44.804V364.39h-10.094v-24.794h-.577zM426.2 359c25.795 0 47.8-17.146 47.8-43.226V292h-46.925C399.387 292 387 305.256 387 323.987 387 345.6 403.322 359 426.201 359zm100.8 6V165h10v200h-10zm106.011 2C596.31 367 574 342.06 574 298.272v-15.804C574 236.359 596.885 212 631.428 212c34.4 0 57.572 24.36 57.572 70.758v7.25H584.075v7.974c0 38.569 19.143 59.593 49.08 59.593 28.067 0 41.596-16.964 43.467-30.739h10.22C684.825 344.381 668.273 367 633.011 367zM584 282h95v-.576C679 244.585 660.087 223 631.5 223S584 244.585 584 281.424V282zm224.941 83l-46.37-67.086h-.43L715.628 365H704l52.399-75.653L705.579 215h12.059l44.934 65.78h.43L808.223 215h11.629l-51.107 74.201L821 365h-12.059zM378 417h444v7H378v-7zm0 42h444v7H378v-7z" fill="#FFF"/></g></svg>
