<svg xmlns="http://www.w3.org/2000/svg" viewBox="0 0 444 301"><path d="M96.329 174.596C93.012 183.73 78.303 202 48.597 202 19.757 202 0 185.036 0 157.486c0-24.649 17.016-41.468 50.327-41.468h46.579v-22.04c0-25.809-16.44-37.553-40.666-37.553-24.66 0-36.34 11.454-39.656 30.159h-9.95C9.228 63.529 25.235 47 56.816 47 86.956 47 107 62.804 107 91.804V199.39H96.906v-24.794h-.577zM48.2 194c25.795 0 47.8-17.146 47.8-43.226V127H49.075C21.387 127 9 140.256 9 158.987 9 180.6 25.322 194 48.201 194zm100.8 6V0h10v200h-10zm106.011 2C218.31 202 196 177.06 196 133.272v-15.804C196 71.359 218.885 47 253.428 47 287.828 47 311 71.36 311 117.758v7.25H206.075v7.974c0 38.569 19.143 59.593 49.08 59.593 28.067 0 41.596-16.964 43.467-30.739h10.22C306.825 179.381 290.273 202 255.011 202zM206 117h95v-.576C301 79.585 282.087 58 253.5 58S206 79.585 206 116.424V117zm224.941 83l-46.37-67.086h-.43L337.628 200H326l52.399-75.653L327.579 50h12.059l44.934 65.78h.43L430.223 50h11.629l-51.107 74.201L443 200h-12.059zM0 252h444v7H0v-7zm0 42h444v7H0v-7z" fill="#6F42C1"/></svg>
