<svg xmlns="http://www.w3.org/2000/svg" viewBox="0 0 270 234"><path stroke="#8060E5" stroke-width="3" d="M4 202h264M4 230h264"/><path d="M12.1 89.6c1.5-3.7 3.7-6.9 6.6-9.6 2.9-2.7 6.4-4.8 10.6-6.3 4.2-1.5 9.1-2.3 14.7-2.3 4 0 7.8.4 11.4 1.2 3.6.8 6.7 2.3 9.4 4.3 2.7 2.1 4.9 4.7 6.5 8 1.6 3.3 2.5 7.4 2.6 12.3v57.6c0 1.8.4 3.1 1.1 3.9.7.8 1.6 1.4 2.8 1.7 1.2.3 2.4.4 3.8.4 1.3-.1 2.6-.1 3.8-.3v3.5h-5.3c-2.6 0-4.8-.6-6.8-1.8-1.9-1.2-2.9-3.5-2.9-7v-11.8H70c-.9 2.9-2.4 5.8-4.5 8.4-2.1 2.7-4.6 5.1-7.7 7.2-3.1 2.1-6.7 3.8-10.6 5-4 1.2-8.3 1.8-13 1.8-9.2 0-16.5-2-22-6.1-5.5-4-8.3-10.1-8.3-18.2 0-5.6.9-10.1 2.7-13.6 1.8-3.4 4.2-6.1 7.1-8 2.9-1.9 6.3-3.3 10-4 3.8-.8 7.5-1.3 11.3-1.5 6.2-.4 11.6-.7 16-1 4.5-.3 8.1-.9 11-1.8 2.9-.9 5-2.2 6.3-4 1.3-1.8 2-4.4 2-7.8 0-2.7-.2-5.5-.7-8.4-.5-2.9-1.6-5.6-3.4-8.1-1.8-2.5-4.5-4.5-8-6.1S50 74.9 44 74.9c-9.5 0-16.9 2.3-22.2 7-5.3 4.6-8.2 11.2-8.8 19.6H9.5c.2-4.2 1.1-8.2 2.6-11.9zM70 110.8c-1.2 1.6-3 2.9-5.5 3.8-2.5.9-5.3 1.6-8.4 2-3.2.5-6.6.8-10.3.9-3.7.1-7.3.3-10.8.5-3.5.2-7 .7-10.3 1.3-3.3.6-6.3 1.8-8.9 3.5-2.6 1.7-4.6 4-6.2 7-1.5 3-2.3 6.9-2.3 11.7 0 2.6.4 5.1 1.3 7.7.9 2.5 2.4 4.8 4.5 6.7 2.1 1.9 4.8 3.5 8.2 4.8 3.3 1.2 7.5 1.8 12.4 1.8 5.9 0 11.1-1 15.7-3s8.4-4.6 11.5-7.8c3.1-3.2 5.5-7 7-11.2 1.6-4.2 2.4-8.6 2.4-13v-16.7H70zm27.9-72.5V164h-3.5V38.3h3.5zm19.8 98.2c1.3 5.2 3.4 9.8 6.2 13.6 2.8 3.9 6.5 6.9 10.9 9.2 4.5 2.2 9.9 3.3 16.4 3.3 9.5 0 17.4-2.5 23.7-7.5 6.3-5 10.2-12.5 11.7-22.4h3.5c-1.3 10.6-5.5 18.7-12.5 24.6-7 5.8-15.7 8.7-26 8.7-7 .1-13.1-1-18-3.3-5-2.3-9.1-5.7-12.2-9.9-3.2-4.3-5.5-9.3-7-15.1-1.5-5.8-2.3-12.1-2.3-18.7 0-7.5 1.1-14.2 3.3-20.1 2.2-5.9 5.2-10.8 8.8-14.9 3.6-4 7.9-7.1 12.7-9.2 4.8-2.1 9.7-3.2 14.8-3.2 7 0 13.1 1.4 18.2 4 5.1 2.7 9.3 6.3 12.5 10.7 3.2 4.5 5.6 9.6 7 15.3 1.5 5.8 2.1 11.7 1.8 18h-75.7c.1 6 .8 11.6 2.2 16.9zm67.6-36.3c-1.5-5-3.8-9.4-6.8-13.1-3-3.8-6.7-6.7-11.2-8.9-4.5-2.2-9.6-3.3-15.5-3.3-4.9 0-9.5.9-13.8 2.8-4.3 1.9-8 4.6-11.3 8.2-3.2 3.6-5.8 7.9-7.8 12.9s-3.2 10.7-3.5 17.1h72.2c0-5.5-.8-10.7-2.3-15.7zm81.3-26.7l-33.1 43.6 36.3 46.8h-4.4l-34.1-44.2-34 44.2h-4.2l36.1-46.8-32.9-43.6h4.6l30.4 41 31.2-41h4.1z" fill="#8060E5"/></svg>
