<svg version="1.0" xmlns="http://www.w3.org/2000/svg" viewBox="0 0 260 260">
  <path d="M0 130v130h260V0H0v130zm133.3-79.8c.3.7 3.9 10.1 8 20.8 25.1 64.8 30.7 79.7 30.7 81 0 .6-1.1 1-2.4 1-2.6 0-2.6 0-11.6-24.5-1.8-5-3.8-9.6-4.3-10.2-.7-.9-6.6-1.2-23.6-1l-22.6.2-5 12.6c-2.7 7-5.8 15-6.8 17.8-1.5 4.3-2.2 5.1-4.2 5.1-1.4 0-2.5-.5-2.5-1.1 0-.6 7-19.4 15.6-41.8C130.1 43.6 127.8 49 130.5 49c1.2 0 2.5.6 2.8 1.2zM181.5 185v2.5l-48.7.3-48.8.2v-6l48.8.2 48.7.3v2.5zm.3 24.2l.3 2.8H84v-6l48.8.2 48.7.3.3 2.7z"/>
  <path d="M127 65.7c-1.8 4.9-5.3 14-7.8 20.3-2.4 6.3-5.7 15-7.3 19.2l-2.8 7.8h42.8l-2.5-6.8c-5.2-13.9-18.6-48.7-18.9-49-.1-.1-1.7 3.7-3.5 8.5z"/>
</svg>
