<svg version="1.0" xmlns="http://www.w3.org/2000/svg" viewBox="0 0 845 845"><path d="M154 1.1C122.9 3 100.8 8.1 80.9 18 49.1 34 23.5 62.7 11.6 95.8c-6 16.7-8.9 33.7-10.6 60.7-1.3 23.1-1.3 508.9 0 532 2.1 34.3 6.8 55 17 75.6 16 31.8 44.7 57.4 77.8 69.3 16.7 6 33.7 8.9 60.7 10.6 23.1 1.3 508.9 1.3 532 0 27-1.7 44-4.6 60.7-10.6 33.1-11.9 61.8-37.5 77.8-69.3 10.2-20.6 14.9-41.3 17-75.6 1.3-23.1 1.3-508.9 0-532-1.7-27-4.6-44-10.6-60.7C821.5 62.7 795.9 34 764.1 18 743.5 7.8 722.8 3.1 688.5 1 668.1-.2 174.4-.1 154 1.1zM449.5 151c27.4 3.2 50.1 12.9 66.3 28.4 12.2 11.6 20 25.1 25 43.5l2.7 9.6.3 131.7.3 131.8H521l-.2-28.3-.3-28.2-2.9 5.5c-11.6 22.3-34.7 41-61.3 49.9-16.3 5.4-24.8 6.6-45.8 6.5-16.8 0-20.3-.3-30-2.6-13.2-3.1-24.8-7.4-33.4-12.5-30.9-18.4-47.4-50.8-45.7-89.8.7-16.3 3.1-26 9.6-39.1 13.7-27.3 41.9-44.5 81-49.4 5-.6 32.9-1 68.8-1h60.4l-.4-33.8c-.4-32.6-.5-34-3.1-43.6-7.6-28.4-25.9-46.1-56.2-54.3-9.4-2.5-11.3-2.7-32.5-2.7-20.2-.1-23.4.1-31.5 2.2-16.9 4.3-31.9 13.2-41.5 24.7-5.6 6.9-12.6 21.2-15.3 31.7l-2.2 8.8h-11.2c-8.4 0-11.3-.3-11.3-1.3.1-3.6 4.3-20.6 6.6-26.5 8.6-21.9 24.1-39 44.9-49.4 10.5-5.3 28.4-10.2 45-12.1 6.7-.8 28.6-.6 37 .3zM544 591v8H301v-16h243v8zm0 96v8H301v-16h243v8z"/><path d="M392.8 334.1c-11.8 1.4-25.9 5.4-35.5 10.1-16.7 8.1-29.1 23.3-34 41.8-2.6 9.6-2.3 29.9.5 40.3 3.6 13.1 9.4 23 19.2 32.8 7.3 7.4 10.2 9.4 19.1 13.8 23.3 11.5 51.2 14 79 7.1 35.5-8.8 62.9-32.7 72.8-63.5 4.3-13.3 5.1-21.6 5.1-54.1V333l-59.2.1c-32.6.1-62.7.6-67 1z"/></svg>
